<?xml version="1.0" encoding="UTF-8"?>
<svg version="1.1" xmlns="http://www.w3.org/2000/svg" width="512" height="512">
<path d="M0 0 C0.70958252 -0.00265183 1.41916503 -0.00530365 2.15025005 -0.00803584 C4.54611005 -0.01574177 6.94191891 -0.01628851 9.33779049 -0.01688576 C11.06566989 -0.02089954 12.79354835 -0.02533762 14.52142566 -0.03016531 C19.2840018 -0.04214624 24.0465678 -0.04778279 28.80915606 -0.05234647 C33.94022865 -0.05829685 39.07128908 -0.06990814 44.20235348 -0.08063698 C56.60170024 -0.10517453 69.00105104 -0.11979043 81.40041462 -0.13269705 C84.90172987 -0.13640809 88.40304472 -0.1403814 91.90435958 -0.14444971 C113.64002446 -0.16968612 135.37568997 -0.19174255 157.11136627 -0.20417786 C162.14752931 -0.20710763 167.18369232 -0.21006928 172.21985531 -0.21308327 C173.4715939 -0.21382932 174.7233325 -0.21457537 176.01300257 -0.21534403 C196.29159257 -0.22799832 216.5700949 -0.26122153 236.84864391 -0.3028851 C257.66135616 -0.34529608 278.47402352 -0.36887196 299.28677887 -0.37409842 C310.97511294 -0.37751356 322.66331003 -0.38928088 334.3516016 -0.42220116 C344.30588802 -0.45019132 354.26000939 -0.4612055 364.21433211 -0.4500057 C369.293067 -0.44481638 374.3714562 -0.44772377 379.45014095 -0.47247124 C384.10208558 -0.49494998 388.7534359 -0.49423446 393.40539085 -0.47526737 C395.08582606 -0.47246543 396.76630146 -0.47807667 398.44667203 -0.4930803 C407.46452126 -0.56865746 415.54346549 -0.50338026 423.09949398 5.13701439 C429.74729621 11.80530712 431.3280245 19.40994655 431.326087 28.6454525 C431.31576443 29.38645699 431.30544186 30.12746147 431.29480648 30.89092064 C431.29056164 32.07040527 431.29056164 32.07040527 431.28623104 33.27371788 C431.27516687 35.74914798 431.25008989 38.22419638 431.22449398 40.69951439 C431.21444632 42.39286848 431.20532363 44.08622833 431.19715023 45.77959251 C431.17527296 49.89887692 431.14084116 54.01788128 431.09949398 58.13701439 C432.83851986 58.09773827 432.83851986 58.09773827 434.61267757 58.05766869 C438.95492559 57.96648802 443.29709076 57.90952094 447.64002132 57.86235619 C449.51191135 57.83736541 451.38370533 57.80336066 453.2552557 57.75981712 C473.97471081 57.29017614 473.97471081 57.29017614 481.09949398 63.13701439 C485.90555542 68.35718301 488.22081211 72.44446404 488.23371506 79.63919449 C488.2381729 80.79015448 488.24263075 81.94111448 488.24722368 83.12695205 C488.24694713 85.03239876 488.24694713 85.03239876 488.246665 86.97633934 C488.24996388 88.33497349 488.25368949 89.69360666 488.25780648 91.05223858 C488.26783257 94.79428497 488.27154428 98.53631532 488.27419579 102.27837324 C488.27809723 106.31133361 488.28767591 110.34428125 488.29640865 114.37723351 C488.31618117 124.12325614 488.32624184 133.86927984 488.33513644 143.61531752 C488.33951945 148.2061089 488.34488636 152.79689912 488.35012531 157.38768959 C488.367141 172.65211497 488.38163356 187.91653964 488.38887405 203.18097305 C488.39078393 207.1432082 488.39270426 211.10544333 488.39466 215.06767845 C488.39514374 216.0524654 488.39562748 217.03725235 488.39612588 218.05188133 C488.40442007 233.99263176 488.42974514 249.93330699 488.46224067 265.87402461 C488.49534004 282.24467352 488.51332555 298.61528426 488.51651829 314.9859668 C488.5186811 324.17548159 488.52739573 333.36488684 488.55297947 342.55436897 C488.57472608 350.38369476 488.58271758 358.21288441 488.57301269 366.04223697 C488.56847896 370.03374998 488.5702996 374.02498238 488.58977413 378.0164566 C488.60748633 381.67854664 488.6063437 385.34015303 488.59087684 389.00224878 C488.58740232 390.93806878 488.603467 392.87389433 488.62048131 394.80964267 C488.50719759 410.34872325 483.1515813 424.03394265 472.47449398 435.38701439 C457.7897941 449.18442122 442.18097822 452.76005704 422.71716976 452.64494896 C420.99914238 452.64956718 419.28111896 452.65592623 417.56310368 452.66385794 C412.87859912 452.68044801 408.19442345 452.67235223 403.50991821 452.65991306 C398.44370595 452.65082233 393.37754825 452.66485217 388.31134701 452.67583275 C378.40106457 452.69357976 368.49090359 452.68979502 358.58061647 452.67818218 C350.52327989 452.66913309 342.46597725 452.66793025 334.40863705 452.67227745 C333.26002575 452.67289038 332.11141445 452.67350331 330.92799675 452.67413482 C328.59430646 452.67541378 326.26061617 452.67671063 323.9269259 452.67802519 C302.06563846 452.6894198 280.20441821 452.67633483 258.34314179 452.65482372 C239.60238701 452.63695377 220.86173135 452.6400582 202.12097836 452.65849876 C180.33565484 452.67992523 158.55039015 452.68832127 136.76505756 452.67604971 C134.44015536 452.67477557 132.11525314 452.67351809 129.79035091 452.67227745 C128.64658084 452.67166035 127.50281077 452.67104325 126.32438099 452.67040744 C118.28067459 452.66695988 110.23700562 452.67277009 102.19330502 452.68219566 C92.38505427 452.69343675 82.57693151 452.69033124 72.76869535 452.66907269 C67.76843412 452.6585907 62.76838594 452.65439167 57.76812649 452.6676693 C53.18368958 452.67965826 48.59966164 452.67292427 44.01526141 452.65175909 C42.3640326 452.64732043 40.71276867 452.64949708 39.06156278 452.65926224 C20.59737118 452.76001375 6.16109272 448.38597229 -7.58019352 435.48467064 C-20.8484995 422.06000415 -24.2067942 407.8346667 -24.17466068 389.51228905 C-24.17911647 387.91208645 -24.18443163 386.31188606 -24.19052941 384.71168888 C-24.20467841 380.32524207 -24.20637329 375.93886623 -24.2059325 371.55239987 C-24.20758339 366.81745715 -24.22065479 362.08254343 -24.23212528 357.3476162 C-24.25495087 347.00064144 -24.26289287 336.65368722 -24.26795173 326.30669069 C-24.27121078 319.8447117 -24.27773441 313.38273865 -24.28495312 306.92076302 C-24.30451378 289.02428759 -24.32092181 271.12781768 -24.32382965 253.23133087 C-24.32401722 252.08669429 -24.32420479 250.94205772 -24.32439804 249.76273518 C-24.32476429 247.44237193 -24.32512799 245.12200867 -24.32548916 242.80164541 C-24.32567197 241.64984159 -24.32585478 240.49803777 -24.32604313 239.3113308 C-24.32622368 238.15811938 -24.32640423 237.00490797 -24.32659025 235.81675075 C-24.33013334 217.12276882 -24.35716658 198.42890198 -24.39454102 179.73495997 C-24.43261821 160.53574156 -24.45198707 141.33658028 -24.45228916 122.13732326 C-24.45287377 111.3600949 -24.4613683 100.58300393 -24.49028683 89.80581093 C-24.51479249 80.63116726 -24.52208887 71.45671114 -24.5070393 62.28204359 C-24.49986781 57.60224609 -24.50073839 52.922819 -24.5234499 48.24306297 C-24.54405705 43.95582524 -24.54142356 39.66924229 -24.52057505 35.38201152 C-24.51708353 33.83429878 -24.52197592 32.28653862 -24.53627949 30.73888804 C-24.61241049 21.93120128 -24.12788737 14.56327171 -18.90050602 7.13701439 C-16.54894352 4.88310814 -16.54894352 4.88310814 -14.27550602 3.57451439 C-13.14242008 2.8919558 -13.14242008 2.8919558 -11.98644352 2.19560814 C-7.86035353 0.1016561 -4.57737083 0.0084048 0 0 Z M0.09949398 24.13701439 C-0.00363102 86.09451439 -0.10675602 148.05201439 -0.21300602 211.88701439 C-0.25852604 231.45981712 -0.30404606 251.03261986 -0.35094547 271.19853783 C-0.36766627 288.72322435 -0.36766627 288.72322435 -0.37772465 306.24791527 C-0.38238825 314.06163103 -0.40073291 321.87516814 -0.42838383 329.68883324 C-0.46023362 338.70236745 -0.47468037 347.71573024 -0.46773077 356.72932114 C-0.46472143 361.33921631 -0.469459 365.94872847 -0.49658167 370.55855322 C-0.52098632 374.73185318 -0.52207681 378.90450077 -0.50501156 383.07783127 C-0.50290081 384.58191359 -0.50915992 386.08603753 -0.52491891 387.59003878 C-0.62962914 398.21264223 0.83797333 407.75720431 7.34949398 416.51201439 C18.346392 427.0090534 28.88768844 428.58385093 43.54596615 428.53142357 C45.23549055 428.5363152 46.9250116 428.54250627 48.61452699 428.54988146 C53.24798053 428.56626978 57.8812638 428.56396528 62.51473618 428.55850649 C67.51557467 428.55583491 72.51636791 428.57037057 77.51718807 428.58260155 C87.31128919 428.60365287 97.10533111 428.60819654 106.89945218 428.60641366 C114.86159958 428.60510579 122.82372853 428.60891146 130.78587246 428.61633873 C133.07980482 428.61843794 135.37373717 428.62053554 137.66766953 428.62263155 C138.80945048 428.62367508 139.95123142 428.62471861 141.12761179 428.62579376 C162.72078189 428.64469521 184.31391801 428.64364632 205.90709296 428.63682443 C225.65376927 428.63125006 245.4003158 428.6520701 265.14696178 428.6851849 C285.42874674 428.71893276 305.71046955 428.73408879 325.99228311 428.72946787 C337.37654572 428.72722416 348.76068841 428.73245188 360.14492702 428.75736046 C369.83774317 428.77838777 379.53037363 428.78195137 389.22319743 428.76306087 C394.16651447 428.75391163 399.10948544 428.75273521 404.05277538 428.77341652 C408.58313686 428.79216023 413.11286966 428.78758505 417.64320746 428.7648707 C419.27708852 428.76069349 420.91101811 428.76485528 422.54484782 428.77846664 C433.51934806 428.86362657 443.35395688 427.65024971 452.47449398 420.88701439 C461.94140445 410.96929866 464.55656703 401.48739858 464.46025753 388.06450462 C464.4628208 386.75501602 464.46538408 385.44552742 464.46802503 384.09635735 C464.4747092 380.47722938 464.46276611 376.85836952 464.44769084 373.23927569 C464.43470471 369.330723 464.43912176 365.42218476 464.44139767 361.51361656 C464.44296878 354.74693295 464.43357659 347.98033629 464.41668415 341.21367455 C464.39227666 331.43029793 464.38448709 321.64696325 464.38072018 311.86355948 C464.37415844 295.98968079 464.35420481 280.11584841 464.32581234 264.24199486 C464.29826459 248.82435398 464.27703451 233.4067257 464.2642889 217.98906517 C464.26350073 217.03831537 464.26271256 216.08756557 464.26190051 215.10800517 C464.25798532 210.33825159 464.25419422 205.56849793 464.2504648 200.7987442 C464.21937754 161.24480025 464.16572217 121.69091396 464.09949398 82.13701439 C453.20949398 82.13701439 442.31949398 82.13701439 431.09949398 82.13701439 C431.03172197 119.92198296 430.97799064 157.7069356 430.94629799 195.49195268 C430.94254572 199.94940499 430.93866277 204.40685718 430.93469906 208.86430931 C430.93391213 209.75173497 430.9331252 210.63916062 430.93231442 211.55347797 C430.91924849 225.93625842 430.89558815 240.31900302 430.86803559 254.70176218 C430.84001436 269.45182629 430.82332468 284.20187158 430.8172285 298.95196122 C430.81310522 308.05888862 430.80006657 317.1657147 430.77574458 326.27261093 C430.75992787 332.51139804 430.75508436 338.75013252 430.75898985 344.98893825 C430.76091776 348.59232861 430.75789286 352.19554152 430.74187756 355.7989006 C430.72466638 359.69966111 430.73050352 363.60018782 430.73873043 367.50098228 C430.72999191 368.6478554 430.72125338 369.79472852 430.71225005 370.97635537 C430.7182232 372.01689701 430.72419634 373.05743864 430.73035049 374.12951183 C430.72921133 375.03058818 430.72807217 375.93166452 430.72689849 376.86004621 C431.17757011 379.61414542 431.89196552 380.47834535 434.09949398 382.13701439 C436.76143 382.92257619 436.76143 382.92257619 439.66199398 383.44951439 C444.86863274 384.79072252 444.86863274 384.79072252 446.84949398 387.76201439 C447.24557485 393.10910614 446.7971684 398.04399113 445.09949398 403.13701439 C439.4435241 405.82360008 433.53608103 406.06184516 427.54480648 404.44951439 C419.89092074 401.65782354 413.6534143 397.51898879 409.86671674 390.07884347 C406.51376027 381.59256188 406.80699369 372.46871238 406.82102108 363.49526024 C406.81601794 362.02997596 406.81014706 360.56469443 406.80348873 359.09941673 C406.78775379 355.08750518 406.78428525 351.07566364 406.78284976 347.06372496 C406.77906121 342.66544427 406.76372781 338.2672007 406.74987888 333.86894226 C406.72473572 325.33873713 406.70972622 316.80854444 406.69829497 308.27831111 C406.6846273 298.40737249 406.65829187 288.53649419 406.63196468 278.66557884 C406.56871925 252.61441458 406.5226562 226.5632109 406.47449398 200.51201439 C406.35074398 142.30826439 406.22699398 84.10451439 406.09949398 24.13701439 C272.11949398 24.13701439 138.13949398 24.13701439 0.09949398 24.13701439 Z " fill="#000000" transform="translate(23.900506019592285,29.862985610961914)"/>
<path d="M0 0 C1.19092758 -0.00525696 2.38185516 -0.01051392 3.60887146 -0.01593018 C6.86307204 -0.02684728 10.11690463 -0.02432256 13.37109947 -0.01479292 C16.78358076 -0.00717472 20.19603821 -0.01424791 23.60852051 -0.01895142 C29.33817937 -0.02440271 35.06772207 -0.01723389 40.79736328 -0.00292969 C47.41282541 0.01339572 54.02801011 0.00810676 60.64346552 -0.0084089 C66.33282924 -0.02204172 72.02210965 -0.02393469 77.71148443 -0.0160929 C81.10535571 -0.0114262 84.49909678 -0.01076372 87.89295959 -0.02070236 C91.67752841 -0.02832114 95.46156459 -0.01670556 99.24609375 0 C100.36523666 -0.00607269 101.48437958 -0.01214539 102.63743591 -0.0184021 C112.73132709 0.06413779 112.73132709 0.06413779 117.12304688 3.38818359 C121.1854416 8.7456855 120.55274144 14.92892238 120.52709961 21.35693359 C120.53396286 22.55761475 120.54082611 23.7582959 120.54789734 24.99536133 C120.56303016 28.27640845 120.56466847 31.55709814 120.55895495 34.83816528 C120.55585767 37.58172264 120.56196141 40.32522892 120.5679937 43.06877899 C120.58202334 49.5424782 120.58049022 56.01604539 120.5690918 62.48974609 C120.55760692 69.1597967 120.57169563 75.82944539 120.59848827 82.49944305 C120.62066346 88.23552017 120.62727874 93.97147128 120.62141186 99.7075882 C120.61804599 103.1294569 120.62043252 106.55106789 120.63766289 109.97290039 C120.65252914 113.78871638 120.64192665 117.60364549 120.62475586 121.41943359 C120.63925781 123.11217407 120.63925781 123.11217407 120.65405273 124.83911133 C120.59635271 130.95832691 120.38245216 134.82485103 116.12304688 139.38818359 C112.99372898 141.34132704 110.5896186 141.64063929 106.93019104 141.64888 C105.88014893 141.65596481 104.83010681 141.66304962 103.74824524 141.67034912 C102.60163925 141.6678717 101.45503326 141.66539429 100.27368164 141.6628418 C99.06193268 141.66795273 97.85018372 141.67306366 96.60171509 141.67832947 C93.28139184 141.68984812 89.96131822 141.69229903 86.6409924 141.68976617 C83.86762735 141.68869594 81.0942853 141.69358114 78.32092518 141.69837159 C71.77732778 141.70946415 65.23378779 141.7099056 58.69018555 141.70385742 C51.94297398 141.69781688 45.1959709 141.71013112 38.4487949 141.73142749 C32.65249222 141.74904886 26.85625588 141.75504402 21.0599274 141.75178975 C17.59953609 141.74997759 14.1392935 141.75260615 10.67892647 141.76650429 C6.81980341 141.78142423 2.96094549 141.77210778 -0.89819336 141.76049805 C-2.04277512 141.76814178 -3.18735687 141.77578552 -4.36662292 141.78366089 C-5.41948486 141.77664658 -6.4723468 141.76963226 -7.55711365 141.7624054 C-8.92509676 141.76265701 -8.92509676 141.76265701 -10.3207159 141.7629137 C-13.44812451 141.30445306 -15.31872973 140.21703717 -17.87695312 138.38818359 C-21.8607513 132.94084252 -21.30021865 126.97651665 -21.26513672 120.51123047 C-21.27039368 119.32030289 -21.27565063 118.12937531 -21.28106689 116.90235901 C-21.291984 113.64815843 -21.28945928 110.39432583 -21.27992964 107.140131 C-21.27231144 103.72764971 -21.27938463 100.31519225 -21.28408813 96.90270996 C-21.28953942 91.17305109 -21.28237061 85.4435084 -21.26806641 79.71386719 C-21.251741 73.09840506 -21.25702996 66.48322035 -21.27354562 59.86776495 C-21.28717844 54.17840123 -21.28907141 48.48912082 -21.28122962 42.79974604 C-21.27656292 39.40587475 -21.27590044 36.01213369 -21.28583908 32.61827087 C-21.29345786 28.83370206 -21.28184228 25.04966587 -21.26513672 21.26513672 C-21.27120941 20.1459938 -21.2772821 19.02685089 -21.28353882 17.87379456 C-21.20099893 7.77990338 -21.20099893 7.77990338 -17.87695312 3.38818359 C-12.53129753 -0.65788604 -6.40983637 -0.03478105 0 0 Z M3.12304688 24.38818359 C3.12304688 55.07818359 3.12304688 85.76818359 3.12304688 117.38818359 C33.81304687 117.38818359 64.50304687 117.38818359 96.12304688 117.38818359 C96.12304688 86.69818359 96.12304688 56.00818359 96.12304688 24.38818359 C65.43304688 24.38818359 34.74304688 24.38818359 3.12304688 24.38818359 Z " fill="#000000" transform="translate(89.876953125,156.61181640625)"/>
<path d="M0 0 C1.03473239 -0.00384115 2.06946478 -0.00768229 3.1355527 -0.01163983 C4.2708472 -0.01077335 5.40614169 -0.00990687 6.57583904 -0.00901413 C7.78304928 -0.01198525 8.99025952 -0.01495637 10.23405188 -0.01801753 C13.58638176 -0.025198 16.93866039 -0.02787686 20.29099429 -0.028615 C23.90595774 -0.03046628 27.52091009 -0.03801396 31.13586712 -0.04475021 C39.0408053 -0.0583306 46.94573841 -0.06435768 54.85068631 -0.06876087 C59.78626981 -0.07152357 64.72185134 -0.07576095 69.65743351 -0.08026505 C83.32204884 -0.0924569 96.98666261 -0.10275666 110.65128326 -0.10614014 C111.52579478 -0.1063597 112.40030629 -0.10657927 113.30131815 -0.10680549 C114.17792214 -0.10702377 115.05452613 -0.10724204 115.95769387 -0.10746694 C117.73402933 -0.1079104 119.51036479 -0.10835697 121.28670025 -0.10880661 C122.16782404 -0.10902804 123.04894784 -0.10924947 123.95677235 -0.10947761 C138.23636961 -0.11342622 152.51591585 -0.13088255 166.7954934 -0.15416613 C181.45530675 -0.17787685 196.11509449 -0.19034185 210.77492732 -0.19150805 C219.00623903 -0.19242493 227.23748425 -0.19818039 235.46877766 -0.21632767 C242.47735006 -0.23172481 249.48583542 -0.23685138 256.49442152 -0.22858956 C260.06997759 -0.22468179 263.64535838 -0.22561875 267.22089291 -0.23964691 C271.09815448 -0.25471972 274.97516912 -0.24652313 278.85245037 -0.23606491 C279.9810527 -0.24412132 281.10965502 -0.25217772 282.27245742 -0.26047826 C288.24755243 -0.22271054 292.6715855 0.14093952 297.90462017 3.13142776 C300.57537216 6.63678975 301.13344843 9.39624705 300.90462017 13.69392776 C300.23280568 18.1701749 298.50604121 20.32056256 294.90462017 23.13142776 C292.41996842 24.37375364 290.76793799 24.25903766 287.98727989 24.26285553 C286.41840398 24.26861725 286.41840398 24.26861725 284.8178336 24.27449536 C283.08076129 24.27319564 283.08076129 24.27319564 281.30859661 24.27186966 C280.08534988 24.27484078 278.86210315 24.2778119 277.60178834 24.28087306 C274.19547251 24.28806921 270.78920708 24.29073361 267.38288724 24.29147053 C263.71339339 24.29331804 260.04391054 24.30086385 256.37442303 24.30760574 C248.34553769 24.32120216 240.31665734 24.32721585 232.2877624 24.3316164 C227.27682594 24.33437667 222.26589141 24.33861363 217.25495625 24.34312057 C203.38796866 24.35531505 189.52098263 24.36561395 175.65398979 24.36899567 C174.32205681 24.36932502 174.32205681 24.36932502 172.96321608 24.36966102 C172.07310518 24.3698793 171.18299429 24.37009757 170.26591033 24.37032247 C168.46213067 24.37076594 166.658351 24.3712125 164.85457134 24.37166214 C163.51245853 24.37199428 163.51245853 24.37199428 162.14323232 24.37233314 C147.64229525 24.3762819 133.1414084 24.39373748 118.64049073 24.41702166 C103.76152799 24.44072051 88.88259046 24.45319685 74.00360852 24.45436358 C65.6460168 24.45528118 57.28849051 24.46105476 48.93091679 24.4791832 C41.81464156 24.49456443 34.69845198 24.49971639 27.5821633 24.49144509 C23.95016251 24.48753151 20.31833432 24.48850245 16.68635464 24.50250244 C12.75135959 24.51753196 8.816609 24.50939577 4.88159466 24.49892044 C3.73023862 24.50697685 2.57888257 24.51503325 1.39263695 24.52333379 C0.33889644 24.51674394 -0.71484408 24.5101541 -1.80051613 24.50336456 C-3.1630352 24.5042602 -3.1630352 24.5042602 -4.5530799 24.50517392 C-7.67693994 24.04593201 -9.54266503 22.96347624 -12.09537983 21.13142776 C-15.18099206 16.81157064 -15.52159658 13.34636219 -14.73991108 8.25252151 C-13.71238319 4.87102064 -11.88042866 3.20402224 -9.09537983 1.13142776 C-6.03715018 0.1115495 -3.20987134 0.00447618 0 0 Z " fill="#000000" transform="translate(84.09537982940674,98.86857223510742)"/>
<path d="M0 0 C1.04729279 -0.00571014 2.09458557 -0.01142029 3.1736145 -0.01730347 C4.32741104 -0.01842133 5.48120758 -0.01953918 6.66996765 -0.02069092 C7.88142456 -0.02565582 9.09288147 -0.03062073 10.34104919 -0.03573608 C13.66968884 -0.04785806 16.99826554 -0.05530649 20.32691979 -0.05974674 C22.40643794 -0.06267677 24.48595056 -0.06678147 26.56546593 -0.07125092 C33.071479 -0.08492848 39.57747947 -0.0945935 46.08350593 -0.09845281 C53.59415243 -0.10293243 61.10461684 -0.12047464 68.61520797 -0.1494534 C74.41995311 -0.17107284 80.22464703 -0.18115725 86.029432 -0.18249393 C89.49657352 -0.1835419 92.96354394 -0.18944773 96.43064308 -0.20731354 C100.29954013 -0.22686139 104.16820988 -0.22250418 108.03715515 -0.21600342 C109.184879 -0.2252182 110.33260284 -0.23443298 111.5151062 -0.243927 C112.57085846 -0.23835785 113.62661072 -0.2327887 114.71435547 -0.22705078 C115.62894185 -0.22851734 116.54352823 -0.2299839 117.48582935 -0.2314949 C120.62274961 0.22393691 122.48603756 1.29976023 125.0476532 3.14044189 C128.13411211 7.46148437 128.46937041 10.92429401 127.6960907 16.01934814 C126.67292222 19.36621854 124.77919583 21.05926656 122.0476532 23.14044189 C119.08554857 24.12781011 117.14757773 24.27063118 114.05770874 24.28088379 C112.51211777 24.28944901 112.51211777 24.28944901 110.93530273 24.29818726 C109.80537399 24.29930511 108.67544525 24.30042297 107.51127625 24.30157471 C105.72554199 24.30902206 105.72554199 24.30902206 103.9037323 24.31661987 C100.63707654 24.32872867 97.37045657 24.33618678 94.10378242 24.34063053 C92.06194073 24.34356321 90.02010463 24.3476684 87.97826576 24.3521347 C81.58705029 24.3658072 75.19584762 24.37547489 68.80461854 24.3793366 C61.43209183 24.38381594 54.05975066 24.40135895 46.68728036 24.43033719 C40.98525861 24.4519699 35.28328899 24.46204173 29.58122665 24.46337771 C26.17722394 24.46442468 22.77339569 24.47030895 19.36943626 24.48819733 C15.57021879 24.50523504 11.77145383 24.50338278 7.97221375 24.49688721 C6.28642967 24.51070938 6.28642967 24.51070938 4.56658936 24.52481079 C-0.98838394 24.49503133 -5.2199133 24.41075432 -9.9523468 21.14044189 C-13.1005324 16.87515818 -13.36661143 13.33815452 -12.60469055 8.26153564 C-11.58525713 4.94685094 -9.63249462 3.23226458 -6.9523468 1.14044189 C-4.46187987 -0.10479157 -2.78720173 0.00907651 0 0 Z " fill="#000000" transform="translate(256.9523468017578,330.85955810546875)"/>
<path d="M0 0 C1.04584763 -0.0071553 2.09169525 -0.01431061 3.16923523 -0.02168274 C4.32146072 -0.02437164 5.47368622 -0.02706055 6.66082764 -0.02983093 C7.87067825 -0.03640213 9.08052887 -0.04297333 10.32704163 -0.04974365 C14.34553267 -0.06951389 18.36398376 -0.08114775 22.38250732 -0.09111023 C23.7660906 -0.09515776 25.14967367 -0.09927468 26.53325653 -0.10346031 C33.03446277 -0.12251478 39.53565765 -0.13674434 46.03688645 -0.14507228 C53.53908683 -0.1548412 61.04099187 -0.18115025 68.5430882 -0.22157317 C74.34275221 -0.25174931 80.14233165 -0.26654263 85.94207263 -0.26985329 C89.4053957 -0.27220245 92.86840337 -0.28114437 96.33164215 -0.30631447 C100.19797679 -0.33395952 104.06392417 -0.32975943 107.93035889 -0.32279968 C109.07448746 -0.33560974 110.21861603 -0.3484198 111.39741516 -0.36161804 C117.58724134 -0.32095971 121.36690141 -0.04848998 126.05438232 4.14717102 C128.64514988 7.56227371 128.41371646 10.97889506 128.05438232 15.14717102 C126.80048 18.76955553 125.83955093 20.60244643 122.67950439 22.79478455 C117.48917698 24.73108585 112.67469386 24.56518387 107.1774292 24.53535461 C105.98650162 24.54061157 104.79557404 24.54586853 103.56855774 24.55128479 C100.31435716 24.5622019 97.06052456 24.55967717 93.80632973 24.55014753 C90.39384844 24.54252934 86.98139098 24.54960253 83.56890869 24.55430603 C77.83924982 24.55975732 72.10970713 24.55258851 66.38006592 24.5382843 C59.76460379 24.52195889 53.14941909 24.52724785 46.53396368 24.54376352 C40.84459996 24.55739633 35.15531955 24.55928931 29.46594477 24.55144751 C26.07207349 24.54678082 22.67833242 24.54611833 19.2844696 24.55605698 C15.49990079 24.56367575 11.7158646 24.55206017 7.93133545 24.53535461 C6.25262108 24.54446365 6.25262108 24.54446365 4.53999329 24.55375671 C-1.00138293 24.50844371 -5.2230821 24.40262343 -9.94561768 21.14717102 C-13.09380327 16.88188731 -13.3598823 13.34488365 -12.59796143 8.26826477 C-11.57852801 4.95358006 -9.62576549 3.2389937 -6.94561768 1.14717102 C-4.45815973 -0.09655795 -2.78379934 0.01304219 0 0 Z " fill="#000000" transform="translate(81.94561767578125,330.8528289794922)"/>
<path d="M0 0 C1.54559097 -0.00856522 1.54559097 -0.00856522 3.12240601 -0.01730347 C4.25233475 -0.01842133 5.38226349 -0.01953918 6.5464325 -0.02069092 C7.736922 -0.02565582 8.9274115 -0.03062073 10.15397644 -0.03573608 C13.4206322 -0.04784488 16.68725217 -0.05530299 19.95392632 -0.05974674 C21.99576801 -0.06267942 24.03760411 -0.06678461 26.07944298 -0.07125092 C32.47065845 -0.08492341 38.86186112 -0.0945911 45.2530902 -0.09845281 C52.62561691 -0.10293215 59.99795808 -0.12047516 67.37042838 -0.1494534 C73.07245013 -0.17108611 78.77441975 -0.18115794 84.47648209 -0.18249393 C87.8804848 -0.18354089 91.28431305 -0.18942516 94.68827248 -0.20731354 C98.48748995 -0.22435125 102.28625491 -0.22249899 106.085495 -0.21600342 C107.77127907 -0.22982559 107.77127907 -0.22982559 109.49111938 -0.243927 C115.04609268 -0.21414754 119.27762204 -0.12987053 124.01005554 3.14044189 C127.15824114 7.40572561 127.42432017 10.94272927 126.66239929 16.01934814 C125.64296587 19.33403285 123.69020336 21.04861921 121.01005554 23.14044189 C118.5225976 24.38417087 116.84823721 24.27457073 114.06443787 24.28761292 C113.01859024 24.29476822 111.97274261 24.30192352 110.89520264 24.30929565 C109.74297714 24.31198456 108.59075165 24.31467346 107.40361023 24.31744385 C106.19375961 24.32401505 104.983909 24.33058624 103.73739624 24.33735657 C99.71890519 24.3571268 95.70045411 24.36876067 91.68193054 24.37872314 C90.29834727 24.38277068 88.9147642 24.3868876 87.53118134 24.39107323 C81.02997509 24.41012769 74.52878022 24.42435725 68.02755141 24.4326852 C60.52535104 24.44245411 53.02344599 24.46876316 45.52134967 24.50918609 C39.72168566 24.53936223 33.92210622 24.55415554 28.12236524 24.55746621 C24.65904217 24.55981536 21.1960345 24.56875728 17.73279572 24.59392738 C13.86646107 24.62157244 10.0005137 24.61737234 6.13407898 24.6104126 C4.41788612 24.62962769 4.41788612 24.62962769 2.66702271 24.64923096 C-3.51396183 24.6086307 -7.32412772 24.35660793 -11.98994446 20.14044189 C-14.481293 16.34925933 -14.20510029 12.64759249 -13.60322571 8.29669189 C-12.63892958 4.9063004 -10.73721843 3.23360301 -7.98994446 1.14044189 C-5.02783983 0.15307368 -3.08986899 0.01025261 0 0 Z " fill="#000000" transform="translate(257.9899444580078,156.85955810546875)"/>
<path d="M0 0 C1.04584763 -0.0071553 2.09169525 -0.01431061 3.16923523 -0.02168274 C4.32146072 -0.02437164 5.47368622 -0.02706055 6.66082764 -0.02983093 C7.87067825 -0.03640213 9.08052887 -0.04297333 10.32704163 -0.04974365 C14.34553267 -0.06951389 18.36398376 -0.08114775 22.38250732 -0.09111023 C23.7660906 -0.09515776 25.14967367 -0.09927468 26.53325653 -0.10346031 C33.03446277 -0.12251478 39.53565765 -0.13674434 46.03688645 -0.14507228 C53.53908683 -0.1548412 61.04099187 -0.18115025 68.5430882 -0.22157317 C74.34275221 -0.25174931 80.14233165 -0.26654263 85.94207263 -0.26985329 C89.4053957 -0.27220245 92.86840337 -0.28114437 96.33164215 -0.30631447 C100.19797679 -0.33395952 104.06392417 -0.32975943 107.93035889 -0.32279968 C109.07448746 -0.33560974 110.21861603 -0.3484198 111.39741516 -0.36161804 C117.5783997 -0.32101778 121.38856559 -0.06899501 126.05438232 4.14717102 C128.54532352 7.93773371 128.27274066 11.64104007 127.66375732 15.99092102 C126.69592607 19.4155547 124.85481048 21.06313147 122.05438232 23.14717102 C119.01892313 24.15621785 116.21211988 24.2768398 113.02684021 24.28761292 C111.50659744 24.29617813 111.50659744 24.29617813 109.9556427 24.30491638 C108.84958176 24.30603424 107.74352081 24.3071521 106.60394287 24.30830383 C105.43442078 24.31326874 104.26489868 24.31823364 103.05993652 24.323349 C99.18698541 24.33796636 95.31407525 24.34477179 91.44110107 24.35029602 C90.10520719 24.3530325 88.76931355 24.35588894 87.43342018 24.35886383 C81.15700231 24.37253108 74.88059745 24.38220152 68.60416573 24.38606572 C61.36975877 24.39054477 54.1355409 24.40808861 46.90119141 24.43706632 C41.30189305 24.45871281 35.70264777 24.46877158 30.10330802 24.47010684 C26.76240559 24.47115276 23.42182228 24.47846966 20.08093834 24.49492645 C16.35148172 24.51198662 12.62248522 24.51010644 8.89300537 24.50361633 C7.24302299 24.51743851 7.24302299 24.51743851 5.55970764 24.53153992 C-0.37692029 24.4991882 -4.74282816 24.10786609 -9.94561768 21.14717102 C-12.61636966 17.64180904 -13.17444593 14.88235173 -12.94561768 10.58467102 C-12.27380318 6.10842388 -10.54703872 3.95803622 -6.94561768 1.14717102 C-4.45815973 -0.09655795 -2.78379934 0.01304219 0 0 Z " fill="#000000" transform="translate(256.94561767578125,388.8528289794922)"/>
<path d="M0 0 C1.04859695 -0.00852997 2.09719391 -0.01705994 3.17756653 -0.02584839 C4.32260147 -0.02494202 5.46763641 -0.02403564 6.64736938 -0.02310181 C7.85751205 -0.02981903 9.06765472 -0.03653625 10.31446838 -0.04345703 C13.6307211 -0.05920079 16.94672337 -0.0658121 20.2629962 -0.0670886 C22.33617568 -0.06851118 24.409329 -0.0727828 26.48250198 -0.07808304 C33.71895257 -0.09658114 40.95532953 -0.10475395 48.19180298 -0.10317993 C54.93109457 -0.10197864 61.67006583 -0.12307879 68.40927637 -0.15466726 C74.20050095 -0.18084232 79.991621 -0.19154672 85.78290427 -0.19026911 C89.23947198 -0.18975982 92.69575499 -0.19542407 96.15226364 -0.21662521 C100.00883177 -0.23963481 103.86496258 -0.23047911 107.72158813 -0.21841431 C108.86257462 -0.22965332 110.0035611 -0.24089233 111.17912292 -0.25247192 C117.35994108 -0.20328871 121.13145952 0.08186091 125.81387329 4.26742554 C128.40464085 7.68252822 128.17320743 11.09914958 127.81387329 15.26742554 C126.50895577 19.25893795 125.59743304 20.8192285 121.93170166 22.91603088 C116.76704311 24.96768984 111.4708594 24.67787276 105.99111938 24.63973999 C104.81794662 24.64339066 103.64477386 24.64704132 102.43605042 24.65080261 C98.56965529 24.65888916 94.70368168 24.64531476 90.83731079 24.63070679 C88.14644187 24.62872864 85.45557834 24.63065408 82.76470947 24.63221741 C77.13098137 24.63309859 71.49737401 24.62205479 65.86367798 24.60360718 C59.35671525 24.58242164 52.84992903 24.57893508 46.34293878 24.58516914 C40.07183979 24.59086877 33.80080274 24.5852114 27.52971268 24.57399559 C24.86553736 24.5693596 22.20146435 24.56899486 19.53727341 24.57058144 C15.81735846 24.57095188 12.09771269 24.55833794 8.37783813 24.54208374 C6.72413963 24.54579987 6.72413963 24.54579987 5.03703308 24.54959106 C4.02216324 24.54250626 3.0072934 24.53542145 1.96166992 24.52812195 C1.08307501 24.52606908 0.20448009 24.52401621 -0.70073891 24.52190113 C-4.48302485 24.13463784 -7.33222076 22.86041578 -10.43612671 20.70492554 C-13.03556376 17.08428107 -13.50571142 13.68215382 -13.18612671 9.26742554 C-12.03649757 5.86349568 -10.46059482 3.08983218 -7.36572838 1.09273338 C-4.78068966 0.11390649 -2.76383329 0.01017618 0 0 Z " fill="#000000" transform="translate(82.18612670898438,388.7325744628906)"/>
<path d="M0 0 C1.54559097 -0.00856522 1.54559097 -0.00856522 3.12240601 -0.01730347 C4.25233475 -0.01842133 5.38226349 -0.01953918 6.5464325 -0.02069092 C7.736922 -0.02565582 8.9274115 -0.03062073 10.15397644 -0.03573608 C13.4206322 -0.04784488 16.68725217 -0.05530299 19.95392632 -0.05974674 C21.99576801 -0.06267942 24.03760411 -0.06678461 26.07944298 -0.07125092 C32.47065845 -0.08492341 38.86186112 -0.0945911 45.2530902 -0.09845281 C52.62561691 -0.10293215 59.99795808 -0.12047516 67.37042838 -0.1494534 C73.07245013 -0.17108611 78.77441975 -0.18115794 84.47648209 -0.18249393 C87.8804848 -0.18354089 91.28431305 -0.18942516 94.68827248 -0.20731354 C98.48748995 -0.22435125 102.28625491 -0.22249899 106.085495 -0.21600342 C107.77127907 -0.22982559 107.77127907 -0.22982559 109.49111938 -0.243927 C115.04609268 -0.21414754 119.27762204 -0.12987053 124.01005554 3.14044189 C126.61350162 6.66769142 127.24536807 9.41740159 127.01005554 13.70294189 C126.33015955 18.18270107 124.65627234 20.36237195 121.01005554 23.14044189 C118.04795091 24.12781011 116.10998007 24.27063118 113.02011108 24.28088379 C111.47452011 24.28944901 111.47452011 24.28944901 109.89770508 24.29818726 C108.76777634 24.29930511 107.6378476 24.30042297 106.47367859 24.30157471 C104.68794434 24.30902206 104.68794434 24.30902206 102.86613464 24.31661987 C99.59947888 24.32872867 96.33285891 24.33618678 93.06618476 24.34063053 C91.02434307 24.34356321 88.98250698 24.3476684 86.94066811 24.3521347 C80.54945263 24.3658072 74.15824997 24.37547489 67.76702088 24.3793366 C60.39449418 24.38381594 53.022153 24.40135895 45.6496827 24.43033719 C39.94766095 24.4519699 34.24569133 24.46204173 28.54362899 24.46337771 C25.13962628 24.46442468 21.73579804 24.47030895 18.33183861 24.48819733 C14.53262113 24.50523504 10.73385617 24.50338278 6.93461609 24.49688721 C5.24883202 24.51070938 5.24883202 24.51070938 3.5289917 24.52481079 C-2.02598159 24.49503133 -6.25751096 24.41075432 -10.98994446 21.14044189 C-13.59339054 17.61319237 -14.22525699 14.8634822 -13.98994446 10.57794189 C-13.31004846 6.09818272 -11.63616126 3.91851184 -7.98994446 1.14044189 C-5.02783983 0.15307368 -3.08986899 0.01025261 0 0 Z " fill="#000000" transform="translate(257.9899444580078,272.85955810546875)"/>
<path d="M0 0 C1.54559097 -0.00856522 1.54559097 -0.00856522 3.12240601 -0.01730347 C4.25233475 -0.01842133 5.38226349 -0.01953918 6.5464325 -0.02069092 C7.736922 -0.02565582 8.9274115 -0.03062073 10.15397644 -0.03573608 C13.4206322 -0.04784488 16.68725217 -0.05530299 19.95392632 -0.05974674 C21.99576801 -0.06267942 24.03760411 -0.06678461 26.07944298 -0.07125092 C32.47065845 -0.08492341 38.86186112 -0.0945911 45.2530902 -0.09845281 C52.62561691 -0.10293215 59.99795808 -0.12047516 67.37042838 -0.1494534 C73.07245013 -0.17108611 78.77441975 -0.18115794 84.47648209 -0.18249393 C87.8804848 -0.18354089 91.28431305 -0.18942516 94.68827248 -0.20731354 C98.48748995 -0.22435125 102.28625491 -0.22249899 106.085495 -0.21600342 C107.77127907 -0.22982559 107.77127907 -0.22982559 109.49111938 -0.243927 C115.04609268 -0.21414754 119.27762204 -0.12987053 124.01005554 3.14044189 C126.61350162 6.66769142 127.24536807 9.41740159 127.01005554 13.70294189 C126.33015955 18.18270107 124.65627234 20.36237195 121.01005554 23.14044189 C118.04795091 24.12781011 116.10998007 24.27063118 113.02011108 24.28088379 C111.47452011 24.28944901 111.47452011 24.28944901 109.89770508 24.29818726 C108.76777634 24.29930511 107.6378476 24.30042297 106.47367859 24.30157471 C104.68794434 24.30902206 104.68794434 24.30902206 102.86613464 24.31661987 C99.59947888 24.32872867 96.33285891 24.33618678 93.06618476 24.34063053 C91.02434307 24.34356321 88.98250698 24.3476684 86.94066811 24.3521347 C80.54945263 24.3658072 74.15824997 24.37547489 67.76702088 24.3793366 C60.39449418 24.38381594 53.022153 24.40135895 45.6496827 24.43033719 C39.94766095 24.4519699 34.24569133 24.46204173 28.54362899 24.46337771 C25.13962628 24.46442468 21.73579804 24.47030895 18.33183861 24.48819733 C14.53262113 24.50523504 10.73385617 24.50338278 6.93461609 24.49688721 C5.24883202 24.51070938 5.24883202 24.51070938 3.5289917 24.52481079 C-2.02598159 24.49503133 -6.25751096 24.41075432 -10.98994446 21.14044189 C-13.59339054 17.61319237 -14.22525699 14.8634822 -13.98994446 10.57794189 C-13.31004846 6.09818272 -11.63616126 3.91851184 -7.98994446 1.14044189 C-5.02783983 0.15307368 -3.08986899 0.01025261 0 0 Z " fill="#000000" transform="translate(257.9899444580078,214.85955810546875)"/>
</svg>
