<?xml version="1.0" encoding="UTF-8"?>
<svg version="1.1" xmlns="http://www.w3.org/2000/svg" width="512" height="512">
<path d="M0 0 C0.90878906 0.40734375 1.81757813 0.8146875 2.75390625 1.234375 C22.73281295 11.12204353 35.71887923 29.24444684 43.38671875 49.69921875 C49.95304315 71.7482449 46.92736566 95.22070305 36.17578125 115.28515625 C33.64582864 119.76760987 30.63880161 123.78754587 27.37109375 127.765625 C25.75867606 129.84556491 25.75867606 129.84556491 26.3190918 131.9206543 C27.40801821 135.24599895 28.92354636 138.38385383 30.375 141.5625 C40.25375872 163.67556706 40.94731003 187.93305558 32.6875 210.6875 C28.70686667 220.46678726 23.74778387 228.89339466 17 237 C16.29423828 237.90685547 16.29423828 237.90685547 15.57421875 238.83203125 C2.29707682 255.40040836 -19.51340597 264.76576812 -40 268 C-45.55235201 268.3996096 -51.07639626 268.42206014 -56.640625 268.40405273 C-58.25855476 268.40977038 -59.87648049 268.41673997 -61.49440002 268.42485046 C-65.84306805 268.44262925 -70.19153269 268.44164435 -74.54022598 268.43590808 C-78.18138334 268.43279829 -81.82250262 268.43892744 -85.46365452 268.44494683 C-94.04985854 268.45893597 -102.6359629 268.45747373 -111.22216797 268.44604492 C-120.06906644 268.43452921 -128.91566298 268.44870985 -137.76252174 268.4754414 C-145.37984152 268.49759258 -152.99706643 268.50423827 -160.61441612 268.49836498 C-165.15508658 268.49499765 -169.69556284 268.49739751 -174.23620605 268.51461601 C-178.49803421 268.53007718 -182.75941272 268.52613915 -187.02122307 268.50731087 C-188.58289441 268.50362475 -190.14459906 268.50673419 -191.7062397 268.51719666 C-193.84089173 268.5304057 -195.97405416 268.51886321 -198.10864258 268.50120544 C-199.3016951 268.50099616 -200.49474762 268.50078688 -201.72395325 268.50057125 C-205.69154626 267.89433357 -207.87083696 266.4649361 -211 264 C-213.90849577 259.80164958 -213.75856434 254.90744687 -213 250 C-211.3472987 246.65362133 -209.09898712 244.55410512 -205.73876286 242.85989285 C-202.4904158 241.8400052 -199.77305797 241.74648371 -196.36729431 241.74171448 C-195.71403705 241.73803877 -195.06077978 241.73436307 -194.38772684 241.73057598 C-192.20623961 241.72062349 -190.02500867 241.72474132 -187.84350586 241.72875977 C-186.27604909 241.72437089 -184.70859466 241.71906815 -183.1411438 241.71292114 C-179.76794446 241.7014288 -176.39480787 241.69596225 -173.02158928 241.69503975 C-167.67885021 241.69309577 -162.33624028 241.67502234 -156.99354553 241.65428162 C-143.71773832 241.60512876 -130.44189591 241.57426534 -117.16601562 241.55297852 C-106.85728762 241.5364205 -96.54867018 241.51349441 -86.24001604 241.46995777 C-80.93871291 241.44827736 -75.6376203 241.44011469 -70.33627594 241.44235051 C-67.02294186 241.44067283 -63.70974282 241.4265569 -60.39645767 241.40913773 C-58.87118712 241.40358152 -57.34588804 241.40301257 -55.82061577 241.40807533 C-37.37116014 241.4628456 -21.50993361 237.05794405 -7.98974609 224.11694336 C4.46931333 211.70663494 11.20323898 196.61464092 11.375 179 C11.16705193 161.35724831 4.47282894 145.00303027 -8.1484375 132.5546875 C-19.208838 122.64578075 -33.31588466 116.40591889 -48.19140625 115.8046875 C-48.94139893 115.7727832 -49.6913916 115.74087891 -50.46411133 115.70800781 C-51.95425111 115.65389615 -53.44522295 115.61847865 -54.9362793 115.60449219 C-60.09526168 115.44456075 -63.07546141 114.33930038 -67 111 C-69.80471664 107.30795044 -70.72049054 103.66975109 -71.75 99.1875 C-75.23294364 85.27985272 -81.23475295 73.31986531 -90 62 C-90.93779297 60.78570312 -90.93779297 60.78570312 -91.89453125 59.546875 C-106.77324604 41.62977003 -129.31026776 31.2362444 -152 28 C-177.48619498 25.92969918 -202.65390076 31.62166995 -222.6484375 48.1953125 C-225.15190315 50.41309738 -227.58167396 52.69008168 -230 55 C-230.60328125 55.52851563 -231.2065625 56.05703125 -231.828125 56.6015625 C-244.76592626 68.39068047 -252.11633921 85.53465854 -256.0625 102.25 C-257.87277477 109.63215944 -257.87277477 109.63215944 -261.125 112.375 C-264.91558981 114.51750728 -267.03880108 115.10465738 -271.40771484 115.23901367 C-291.67580945 115.91074858 -308.65968787 122.19843545 -323.0625 136.9375 C-333.81446615 149.56030826 -338.74955616 165.68722802 -338.34375 182.10546875 C-336.7763578 199.86330994 -329.28216587 215.05573288 -316 227 C-304.13818975 236.675894 -290.69232753 241.08432576 -275.53515625 241.2109375 C-273.66470468 241.23899867 -271.79426208 241.26766308 -269.92382812 241.296875 C-266.9899921 241.33814474 -264.05632499 241.37505538 -261.12231445 241.40136719 C-258.28041548 241.42903021 -255.43926506 241.47488874 -252.59765625 241.5234375 C-251.7256105 241.52669037 -250.85356476 241.52994324 -249.95509338 241.53329468 C-243.67428733 241.659527 -239.28397413 242.71602587 -234.6875 247.3125 C-231.97333607 251.63505737 -231.76367085 254.62929094 -232.625 259.625 C-234.41910696 264.02871708 -236.81511487 265.90755744 -241 268 C-242.40633639 268.10435616 -243.81739152 268.14863667 -245.22753906 268.16113281 C-246.10315491 268.17074036 -246.97877075 268.1803479 -247.88092041 268.19024658 C-248.83287292 268.19449646 -249.78482544 268.19874634 -250.765625 268.203125 C-251.75060974 268.20882507 -252.73559448 268.21452515 -253.75042725 268.22039795 C-255.84532596 268.22986366 -257.94023968 268.23638814 -260.03515625 268.24023438 C-263.19559112 268.24983472 -266.35534584 268.28079814 -269.515625 268.3125 C-297.57926333 268.4610172 -320.00925294 260.34198366 -340.5625 240.875 C-357.51686868 223.51353489 -365.2604048 200.49839091 -365.2487793 176.4777832 C-364.9558777 154.45116132 -356.44301686 134.45579134 -342 118 C-341.34644531 117.25105469 -340.69289063 116.50210938 -340.01953125 115.73046875 C-324.3579258 98.95227604 -302.67495933 90.16591103 -280 89 C-279.773125 87.9275 -279.54625 86.855 -279.3125 85.75 C-271.96130386 56.70256525 -250.75691428 32.65314072 -225.6875 17.25 C-199.04219442 1.51687896 -165.20337874 -4.14558223 -135.01123047 3.4609375 C-121.70279695 7.02794663 -109.96705622 12.18332241 -98 19 C-96.92554738 18.08100253 -95.85138842 17.16166171 -94.77734375 16.2421875 C-94.13522949 15.69272461 -93.49311523 15.14326172 -92.83154297 14.57714844 C-91.44043715 13.37926207 -90.0627208 12.16580566 -88.69140625 10.9453125 C-64.05246687 -10.1221109 -29.06581776 -13.29159603 0 0 Z M-77 36 C-76.67128906 36.43828125 -76.34257812 36.8765625 -76.00390625 37.328125 C-74.96968674 38.70708434 -73.9373541 40.0874596 -72.90625 41.46875 C-71.56517662 43.24951957 -70.20964314 45.01944581 -68.84375 46.78125 C-56.18031202 63.26106654 -56.18031202 63.26106654 -53.52734375 73.28515625 C-51.24017272 83.10742993 -51.24017272 83.10742993 -44.83251953 90.23779297 C-39.54275036 91.9185862 -34.09267401 92.264283 -28.58544922 92.69677734 C-16.08570355 94.16275318 -3.7482129 102.48526786 6 110 C9.44947049 108.96361201 10.1584732 107.73866873 12.0703125 104.5859375 C12.76772192 103.18846692 13.4522275 101.78449675 14.125 100.375 C14.64513672 99.34439453 14.64513672 99.34439453 15.17578125 98.29296875 C21.22509181 85.93939585 22.16829987 71.32044976 18.4375 58.0625 C12.51196649 41.79309093 2.12514334 30.19342702 -13.5 22.8203125 C-36.34425512 13.04011578 -59.50445139 18.97963913 -77 36 Z " fill="#000000" transform="translate(378,163)"/>
<path d="M0 0 C6.94532452 6.05868735 11.24357866 15.22241999 15.8125 23.125 C16.40546875 24.11435547 16.9984375 25.10371094 17.609375 26.12304688 C20.95562804 31.93272813 22.81768084 35.83701563 21.9375 42.5625 C20.70141302 46.0105321 19.57748001 47.98069999 16.875 50.4375 C12.58935229 52.07881189 8.41859483 52.71199824 3.9375 51.5625 C-3.21298292 47.44366714 -6.55936051 40.08948195 -10.3125 33.0625 C-10.92351562 31.94746094 -11.53453125 30.83242187 -12.1640625 29.68359375 C-21.14332958 13.23467436 -21.14332958 13.23467436 -19.0625 5.5625 C-14.81798815 -1.56221633 -7.55392433 -3.54571958 0 0 Z " fill="#000000" transform="translate(277.0625,101.4375)"/>
<path d="M0 0 C4.36045847 2.22136563 7.13277421 4.43567029 9 9 C9.91028572 16.61407214 7.20659019 21.32070067 3.4375 27.8125 C2.88827881 28.78356689 2.33905762 29.75463379 1.77319336 30.75512695 C0.20181988 33.51539748 -1.39417866 36.25966536 -3 39 C-3.38768555 39.67256836 -3.77537109 40.34513672 -4.17480469 41.03808594 C-9.59177058 50.3927491 -9.59177058 50.3927491 -15 53 C-19.04948712 53.77010849 -23.15668249 53.9160044 -26.91015625 52.05078125 C-30.14007169 49.53509772 -32.16510234 46.9889555 -33 43 C-32.88948118 35.01501511 -29.25113219 29.28520735 -25.3125 22.5 C-24.69955078 21.41074219 -24.08660156 20.32148437 -23.45507812 19.19921875 C-11.48686507 -1.79274773 -11.48686507 -1.79274773 0 0 Z " fill="#000000" transform="translate(418,100)"/>
<path d="M0 0 C3.40514633 1.66796802 5.43753008 4.09515708 7.4375 7.3125 C8.5429726 12.59420244 8.08041576 16.28247808 5.2578125 20.76953125 C0.89062177 25.74795629 -5.35086735 28.57557718 -11.0625 31.75 C-12.25906963 32.4273158 -13.45503898 33.10569321 -14.65039062 33.78515625 C-29.68357192 42.28550466 -29.68357192 42.28550466 -38 41 C-41.40102578 39.32030972 -43.43576989 36.90767453 -45.4375 33.6875 C-46.21292685 29.98268285 -46.27927587 26.55497263 -45 23 C-41.59271328 18.41081555 -38.51612174 15.77076591 -33.45703125 12.94921875 C-32.84736008 12.60494339 -32.2376889 12.26066803 -31.60954285 11.90596008 C-29.68332431 10.8217397 -27.74829149 9.75451542 -25.8125 8.6875 C-24.50264035 7.95357023 -23.19338923 7.2185533 -21.88476562 6.48242188 C-8.3104685 -1.13440444 -8.3104685 -1.13440444 0 0 Z " fill="#000000" transform="translate(472,153)"/>
<path d="M0 0 C3.55419254 1.30876654 6.69796412 3.11359825 9.9375 5.0625 C10.80632812 5.56475098 11.67515625 6.06700195 12.5703125 6.58447266 C15.06090786 8.03406245 17.53184299 9.51262303 20 11 C21.19907401 11.70467343 22.39827216 12.40913572 23.59765625 13.11328125 C33.66961758 19.22694822 33.66961758 19.22694822 35.71484375 25.02734375 C36.28060388 29.88097014 35.85019746 32.81971039 33 37 C30.80431809 39.52836099 29.22180148 40.80642644 25.875 41.33666992 C18.70599483 41.57578037 14.13271357 39.5893348 8.0625 35.9375 C7.19367188 35.43524902 6.32484375 34.93299805 5.4296875 34.41552734 C2.93909214 32.96593755 0.46815701 31.48737697 -2 30 C-3.19907401 29.29532657 -4.39827216 28.59086428 -5.59765625 27.88671875 C-15.66961758 21.77305178 -15.66961758 21.77305178 -17.71484375 15.97265625 C-18.28060388 11.11902986 -17.85019746 8.18028961 -15 4 C-10.73989627 -0.90557399 -6.09310353 -0.82188317 0 0 Z " fill="#000000" transform="translate(444,281)"/>
<path d="M0 0 C3.1074829 2.74189668 4.8264185 5.75451638 5.412323 9.91552734 C5.53690126 12.28189542 5.56702411 14.63036047 5.55859375 17 C5.5638356 17.86512207 5.56907745 18.73024414 5.57447815 19.62158203 C5.58087791 21.44367402 5.57958795 23.26580743 5.57104492 25.08789062 C5.56252564 27.86663659 5.59133844 30.64333127 5.62304688 33.421875 C5.62465895 35.19791605 5.62408124 36.97396073 5.62109375 38.75 C5.63794472 39.9877417 5.63794472 39.9877417 5.65513611 41.25048828 C5.59100458 46.58975669 4.65520494 49.62993165 1.125 53.875 C-3.06967991 56.78095295 -7.97153969 56.64068229 -12.875 55.875 C-16.73807671 53.89615866 -19.38812314 50.94129046 -20.875 46.875 C-21.07947642 44.01087605 -21.17907814 41.2468048 -21.17578125 38.3828125 C-21.18006638 37.55925262 -21.1843515 36.73569275 -21.18876648 35.88717651 C-21.19450125 34.14728717 -21.19501632 32.40737385 -21.19067383 30.66748047 C-21.18751925 28.01618139 -21.21096406 25.36600452 -21.23632812 22.71484375 C-21.23860187 21.02083473 -21.23930427 19.32682273 -21.23828125 17.6328125 C-21.247491 16.84512482 -21.25670074 16.05743713 -21.26618958 15.24588013 C-21.21914457 9.60070804 -20.0679534 5.52481869 -16.375 1.0625 C-11.9246823 -2.46066818 -5.00992325 -1.96040475 0 0 Z " fill="#000000" transform="translate(349.875,82.125)"/>
<path d="M0 0 C0.82458206 -0.00960754 1.64916412 -0.01921509 2.49873352 -0.02911377 C3.39142441 -0.03336365 4.2841153 -0.03761353 5.20385742 -0.04199219 C6.12140305 -0.04769226 7.03894867 -0.05339233 7.98429871 -0.05926514 C9.92864832 -0.06872152 11.87301401 -0.07525164 13.81738281 -0.07910156 C16.78698872 -0.08879428 19.7558988 -0.11980622 22.7253418 -0.15136719 C24.61400956 -0.15789852 26.50268228 -0.16314848 28.39135742 -0.16699219 C29.27797562 -0.17933899 30.16459381 -0.19168579 31.07807922 -0.20440674 C35.86625476 -0.18717757 39.13881366 -0.00388801 42.99682617 3.16113281 C45.89233049 7.55431177 46.55560983 10.94581864 45.99682617 16.16113281 C44.76929882 19.52068136 43.75702704 21.5434983 40.97509766 23.80371094 C36.79925401 25.70695634 33.07260266 25.6288365 28.53198242 25.62988281 C27.16558876 25.6413031 27.16558876 25.6413031 25.77159119 25.6529541 C23.84938288 25.66373597 21.92711608 25.66661599 20.00488281 25.66210938 C17.0721624 25.66113707 14.14205973 25.70277882 11.2097168 25.74707031 C9.33797744 25.75227779 7.46622902 25.7549655 5.59448242 25.75488281 C4.72243668 25.77127808 3.85039093 25.78767334 2.95191956 25.80456543 C-1.3164439 25.75637923 -4.12883153 25.50747571 -7.51318359 22.76855469 C-11.30305288 18.79994953 -12.02796621 16.72305316 -11.94067383 11.22363281 C-11.23383374 6.67227227 -9.22028867 4.37824766 -6.00317383 1.16113281 C-3.74927644 0.03418412 -2.50107096 0.02350295 0 0 Z " fill="#000000" transform="translate(453.003173828125,224.8388671875)"/>
</svg>
